<svg width="58" height="84" viewBox="0 0 58 84" fill="none" xmlns="http://www.w3.org/2000/svg">
<path d="M0.0114467 3.63009C0.0182327 8.81599 1.39492 13.9058 3.99918 18.3724C6.60344 22.839 10.3406 26.52 14.8234 29.0339C12.474 30.3525 10.3183 31.9968 8.41913 33.9193C4.15839 38.226 1.34412 43.7795 0.374588 49.7937C-0.595114 55.8078 0.329174 61.9784 3.01626 67.4319C5.70351 72.8854 10.0175 77.3459 15.348 80.1821C20.6785 83.0179 26.7556 84.0863 32.7191 83.2353C38.6826 82.3841 44.2308 79.6575 48.5783 75.4402C52.9259 71.2232 55.8522 65.7298 56.9441 59.7369C58.0359 53.7442 57.2378 47.5557 54.6621 42.0474C52.0867 36.5391 47.8641 31.9897 42.5927 29.0431C47.0816 26.5325 50.8238 22.8517 53.4312 18.3829C56.0386 13.914 57.416 8.82034 57.4198 3.63079C57.4198 3.15403 57.3272 2.68179 57.1468 2.2414C56.9669 1.80083 56.7024 1.40046 56.3694 1.06342C56.0358 0.726208 55.6403 0.45877 55.2048 0.276244C54.7698 0.0938921 54.3031 -6.95566e-05 53.8317 0.000104443C50.0606 -0.0101616 46.3247 0.736472 42.841 2.19703C39.3568 3.65741 36.1937 5.80248 33.5345 8.50818C31.6346 10.43 30.0096 12.6111 28.7067 14.9881C26.224 10.4507 22.5866 6.66796 18.1717 4.03256C13.7568 1.39733 8.72536 0.00532586 3.5995 0.00114986C3.12831 0.00114986 2.66182 0.0949375 2.22664 0.277289C1.7913 0.459467 1.39579 0.726731 1.06276 1.06377C0.729549 1.40063 0.46524 1.80083 0.284802 2.24105C0.104538 2.68145 0.0116207 3.15333 0.0114467 3.63009ZM32.6692 25.0382C33.468 20.72 35.5382 16.7473 38.6081 13.6408C41.6782 10.5344 45.6047 8.43945 49.872 7.63105C49.0673 11.9464 46.9947 15.9159 43.9263 19.0213C40.8572 22.1266 36.9341 24.2235 32.6692 25.0382ZM43.931 39.0607C47.0019 42.1631 49.0732 46.1336 49.872 50.4497C45.6094 49.6341 41.6879 47.5379 38.6203 44.4338C35.5525 41.3298 33.4805 37.3626 32.6745 33.0491C36.9403 33.8575 40.8642 35.9532 43.931 39.0607ZM13.4926 39.0535C16.7113 35.7795 20.8815 33.6345 25.3925 32.9326C26.2381 39.2315 29.1013 45.0764 33.5435 49.5713C37.9857 54.0661 43.7618 56.9635 49.9872 57.8194C49.4628 61.2178 48.1503 64.4424 46.1571 67.2288C44.1645 70.0153 41.5477 72.2847 38.5211 73.8511C35.4947 75.4178 32.1447 76.2368 28.7453 76.2415C25.3458 76.2459 21.9936 75.4362 18.963 73.8779C15.9324 72.3196 13.3096 70.0575 11.3093 67.2763C9.30879 64.4955 7.98778 61.2744 7.45412 57.8776C6.92047 54.4805 7.18947 51.004 8.23886 47.7323C9.28843 44.4608 11.0888 41.4859 13.4926 39.0535ZM7.55678 7.63609C11.82 8.45146 15.7412 10.548 18.809 13.6521C21.8768 16.7563 23.9488 20.7239 24.7548 25.0373C20.4919 24.2218 16.5709 22.1253 13.5034 19.0211C10.4358 15.9169 8.36257 11.9494 7.55678 7.63609Z" fill="#00714D"/>
</svg>
